
      <svg data-logo="logo" xmlns="http://www.w3.org/2000/svg" viewBox="0 0 227 43">
        <g id="logogram" transform="translate(0, 1) rotate(0) "><path d="M0.301758 30.08L0.301761 10.08L10.3018 15.6355V24.5799L18.3018 29.08L26.3018 24.5799V15.6355L36.3019 10.08V30.08L18.3018 40.08L0.301758 30.08Z" fill="#192657"/><path fill-rule="evenodd" clip-rule="evenodd" d="M5.30177 12.8578L0.301758 10.08L18.3018 0.0799561L36.3019 10.08L31.3018 12.8578V27.58L18.3018 35.08L5.30176 27.58L5.30177 12.8578ZM30.7602 13.1587L26.3018 15.6355V15.58L18.3018 11.0799L10.3018 15.58V15.6355L5.84343 13.1587V27.2723L18.3018 34.4598L30.7602 27.2723V13.1587Z" fill="url(#paint0_linear_5558_2243)"/></g>
        <g id="logotype" transform="translate(43, 1)"><path fill="#111111" d="M15.07 12.86L7.28 12.86L7.28 8.54L28.08 8.54L28.08 12.86L20.30 12.86L20.30 34L15.07 34L15.07 12.86ZM34.40 34L29.27 34L29.27 14.89L34.23 14.89L34.23 18.23L34.44 18.23Q34.97 16.45 36.20 15.54Q37.44 14.64 39.05 14.64L39.05 14.64Q39.44 14.64 39.90 14.68Q40.35 14.72 40.71 14.81L40.71 14.81L40.71 19.39Q40.37 19.27 39.72 19.20Q39.07 19.13 38.49 19.13L38.49 19.13Q37.32 19.13 36.38 19.64Q35.44 20.14 34.92 21.04Q34.40 21.93 34.40 23.13L34.40 23.13L34.40 34ZM46.38 34L41.25 34L41.25 14.89L46.38 14.89L46.38 34ZM43.82 12.40L43.82 12.40Q42.65 12.40 41.83 11.63Q41.01 10.86 41.01 9.77L41.01 9.77Q41.01 8.67 41.83 7.90Q42.65 7.13 43.82 7.13L43.82 7.13Q44.98 7.13 45.81 7.90Q46.64 8.66 46.64 9.77L46.64 9.77Q46.64 10.86 45.81 11.63Q44.98 12.40 43.82 12.40ZM53.59 41.14L48.46 41.14L48.46 14.89L53.50 14.89L53.50 18.11L53.74 18.11Q54.10 17.35 54.76 16.55Q55.42 15.75 56.49 15.20Q57.57 14.65 59.19 14.65L59.19 14.65Q61.31 14.65 63.07 15.75Q64.83 16.84 65.89 19.03Q66.94 21.22 66.94 24.48L66.94 24.48Q66.94 27.66 65.91 29.86Q64.89 32.05 63.13 33.19Q61.36 34.32 59.16 34.32L59.16 34.32Q57.61 34.32 56.53 33.79Q55.45 33.27 54.78 32.49Q54.10 31.71 53.74 30.94L53.74 30.94L53.59 30.94L53.59 41.14ZM57.59 30.21L57.59 30.21Q58.92 30.21 59.84 29.47Q60.75 28.74 61.22 27.44Q61.69 26.14 61.69 24.46L61.69 24.46Q61.69 22.79 61.22 21.51Q60.75 20.23 59.84 19.49Q58.94 18.76 57.59 18.76L57.59 18.76Q56.27 18.76 55.35 19.47Q54.43 20.17 53.95 21.45Q53.47 22.72 53.47 24.46L53.47 24.46Q53.47 26.19 53.96 27.48Q54.44 28.77 55.37 29.49Q56.29 30.21 57.59 30.21ZM73.58 34L68.37 34L68.37 8.54L78.30 8.54Q81.20 8.54 83.24 9.64Q85.27 10.74 86.34 12.68Q87.41 14.62 87.41 17.13L87.41 17.13Q87.41 19.66 86.32 21.58Q85.24 23.51 83.18 24.59Q81.12 25.68 78.18 25.68L78.18 25.68L71.79 25.68L71.79 21.47L77.34 21.47Q78.95 21.47 79.98 20.92Q81.02 20.36 81.52 19.39Q82.02 18.41 82.02 17.13L82.02 17.13Q82.02 15.85 81.52 14.88Q81.02 13.90 79.97 13.37Q78.93 12.84 77.32 12.84L77.32 12.84L73.58 12.84L73.58 34ZM88.65 8.54L93.78 8.54L93.78 34L88.65 34L88.65 8.54ZM101.20 34.38L101.20 34.38Q99.38 34.38 97.94 33.74Q96.50 33.09 95.67 31.82Q94.84 30.55 94.84 28.65L94.84 28.65Q94.84 27.06 95.43 25.98Q96.02 24.91 97.03 24.26Q98.05 23.61 99.34 23.27Q100.63 22.93 102.05 22.79L102.05 22.79Q103.71 22.62 104.72 22.47Q105.74 22.33 106.21 22.01Q106.68 21.70 106.68 21.08L106.68 21.08L106.68 20.99Q106.68 20.17 106.34 19.61Q106.00 19.05 105.33 18.75Q104.66 18.45 103.69 18.45L103.69 18.45Q102.70 18.45 101.96 18.75Q101.23 19.05 100.77 19.54Q100.31 20.04 100.08 20.65L100.08 20.65L95.38 19.87Q95.88 18.21 97.03 17.05Q98.17 15.88 99.87 15.27Q101.57 14.65 103.69 14.65L103.69 14.65Q105.25 14.65 106.70 15.02Q108.15 15.39 109.30 16.16Q110.46 16.93 111.13 18.16Q111.81 19.39 111.81 21.13L111.81 21.13L111.81 34L106.95 34L106.95 31.35L106.78 31.35Q106.32 32.24 105.55 32.91Q104.78 33.59 103.70 33.98Q102.61 34.38 101.20 34.38ZM102.65 30.77L102.65 30.77Q103.86 30.77 104.78 30.29Q105.69 29.81 106.20 28.99Q106.72 28.17 106.72 27.16L106.72 27.16L106.72 25.10Q106.49 25.27 106.03 25.40Q105.57 25.54 105.01 25.64Q104.44 25.75 103.90 25.83Q103.35 25.92 102.92 25.97L102.92 25.97Q101.98 26.10 101.26 26.41Q100.55 26.72 100.15 27.22Q99.76 27.73 99.76 28.51L99.76 28.51Q99.76 29.25 100.14 29.75Q100.51 30.26 101.15 30.51Q101.79 30.77 102.65 30.77ZM119.03 22.94L119.03 22.94L119.03 34L113.91 34L113.91 14.89L118.74 14.89L118.83 19.66L118.52 19.66Q119.27 17.27 120.80 15.96Q122.33 14.65 124.76 14.65L124.76 14.65Q126.74 14.65 128.21 15.52Q129.68 16.38 130.50 18.00Q131.32 19.61 131.32 21.85L131.32 21.85L131.32 34L126.20 34L126.20 22.74Q126.20 20.96 125.28 19.95Q124.37 18.94 122.74 18.94L122.74 18.94Q121.67 18.94 120.82 19.41Q119.97 19.88 119.50 20.77Q119.03 21.66 119.03 22.94ZM138.55 22.94L138.55 22.94L138.55 34L133.42 34L133.42 14.89L138.26 14.89L138.34 19.66L138.04 19.66Q138.79 17.27 140.32 15.96Q141.85 14.65 144.27 14.65L144.27 14.65Q146.26 14.65 147.73 15.52Q149.20 16.38 150.02 18.00Q150.84 19.61 150.84 21.85L150.84 21.85L150.84 34L145.71 34L145.71 22.74Q145.71 20.96 144.80 19.95Q143.88 18.94 142.26 18.94L142.26 18.94Q141.18 18.94 140.34 19.41Q139.49 19.88 139.02 20.77Q138.55 21.66 138.55 22.94ZM161.57 34.38L161.57 34.38Q158.65 34.38 156.53 33.18Q154.41 31.98 153.27 29.78Q152.13 27.57 152.13 24.55L152.13 24.55Q152.13 21.59 153.26 19.37Q154.39 17.15 156.46 15.90Q158.53 14.65 161.31 14.65L161.31 14.65Q163.19 14.65 164.81 15.25Q166.44 15.85 167.67 17.06Q168.90 18.26 169.59 20.07Q170.28 21.88 170.28 24.34L170.28 24.34L170.28 25.78L154.24 25.78L154.24 22.57L167.77 22.57L165.38 23.42Q165.38 21.93 164.93 20.83Q164.47 19.73 163.58 19.12Q162.68 18.52 161.35 18.52L161.35 18.52Q160.03 18.52 159.10 19.13Q158.17 19.75 157.69 20.80Q157.21 21.85 157.21 23.20L157.21 23.20L157.21 25.47Q157.21 27.13 157.76 28.26Q158.32 29.39 159.32 29.95Q160.32 30.51 161.65 30.51L161.65 30.51Q162.56 30.51 163.29 30.26Q164.03 30.00 164.55 29.50Q165.07 28.99 165.34 28.26L165.34 28.26L169.99 29.13Q169.53 30.70 168.39 31.89Q167.24 33.08 165.52 33.73Q163.81 34.38 161.57 34.38ZM176.64 34L171.51 34L171.51 14.89L176.47 14.89L176.47 18.23L176.67 18.23Q177.20 16.45 178.44 15.54Q179.68 14.64 181.29 14.64L181.29 14.64Q181.68 14.64 182.13 14.68Q182.59 14.72 182.94 14.81L182.94 14.81L182.94 19.39Q182.60 19.27 181.95 19.20Q181.30 19.13 180.72 19.13L180.72 19.13Q179.56 19.13 178.62 19.64Q177.68 20.14 177.16 21.04Q176.64 21.93 176.64 23.13L176.64 23.13L176.64 34Z"/></g>
        <defs xmlns="http://www.w3.org/2000/svg">
<linearGradient id="paint0_linear_5558_2243" x1="5.30176" y1="7.85773" x2="32.3018" y2="7.85774" gradientUnits="userSpaceOnUse">
<stop stop-color="#64C2DB"/>
<stop offset="0.307292" stop-color="#7476ED"/>
<stop offset="0.604167" stop-color="#C994DF"/>
<stop offset="1" stop-color="#E56F8C"/>
</linearGradient>
</defs>
      </svg>
    